<svg width="18" height="18" viewBox="0 0 18 18" fill="none" xmlns="http://www.w3.org/2000/svg">
<path d="M15.75 9C15.75 12.5355 15.75 14.3032 14.7615 15.4012C13.773 16.4992 12.1815 16.5 9 16.5C5.8185 16.5 4.227 16.5 3.2385 15.4012C2.25 14.304 2.25 12.5355 2.25 9C2.25 5.4645 2.25 3.69675 3.2385 2.598C4.227 1.49925 5.8185 1.5 9 1.5C12.1815 1.5 13.773 1.5 14.7615 2.598C15.4185 3.3285 15.639 4.35525 15.7125 6" stroke="white" stroke-width="1.5" stroke-linecap="round"/>
<path d="M5.25 6C5.25 5.65125 5.25 5.47725 5.28825 5.334C5.33939 5.1434 5.43977 4.96961 5.57932 4.83007C5.71886 4.69052 5.89265 4.59014 6.08325 4.539C6.228 4.5 6.402 4.5 6.75 4.5H11.25C11.5987 4.5 11.7727 4.5 11.916 4.53825C12.1066 4.58939 12.2804 4.68977 12.4199 4.82932C12.5595 4.96886 12.6599 5.14265 12.711 5.33325C12.75 5.478 12.75 5.652 12.75 6C12.75 6.348 12.75 6.52275 12.7117 6.666C12.6606 6.8566 12.5602 7.03039 12.4207 7.16993C12.2811 7.30947 12.1073 7.40986 11.9167 7.461C11.7727 7.5 11.598 7.5 11.25 7.5H6.75C6.40125 7.5 6.22725 7.5 6.084 7.46175C5.8934 7.41061 5.71961 7.31023 5.58007 7.17068C5.44052 7.03114 5.34014 6.85735 5.289 6.66675C5.25 6.522 5.25 6.348 5.25 6Z" stroke="white" stroke-width="1.5"/>
<path d="M6 10.5C6.41421 10.5 6.75 10.1642 6.75 9.75C6.75 9.33579 6.41421 9 6 9C5.58579 9 5.25 9.33579 5.25 9.75C5.25 10.1642 5.58579 10.5 6 10.5Z" fill="white"/>
<path d="M6 13.5C6.41421 13.5 6.75 13.1642 6.75 12.75C6.75 12.3358 6.41421 12 6 12C5.58579 12 5.25 12.3358 5.25 12.75C5.25 13.1642 5.58579 13.5 6 13.5Z" fill="white"/>
<path d="M9 10.5C9.41421 10.5 9.75 10.1642 9.75 9.75C9.75 9.33579 9.41421 9 9 9C8.58579 9 8.25 9.33579 8.25 9.75C8.25 10.1642 8.58579 10.5 9 10.5Z" fill="white"/>
<path d="M9 13.5C9.41421 13.5 9.75 13.1642 9.75 12.75C9.75 12.3358 9.41421 12 9 12C8.58579 12 8.25 12.3358 8.25 12.75C8.25 13.1642 8.58579 13.5 9 13.5Z" fill="white"/>
<path d="M12 10.5C12.4142 10.5 12.75 10.1642 12.75 9.75C12.75 9.33579 12.4142 9 12 9C11.5858 9 11.25 9.33579 11.25 9.75C11.25 10.1642 11.5858 10.5 12 10.5Z" fill="white"/>
<path d="M12 13.5C12.4142 13.5 12.75 13.1642 12.75 12.75C12.75 12.3358 12.4142 12 12 12C11.5858 12 11.25 12.3358 11.25 12.75C11.25 13.1642 11.5858 13.5 12 13.5Z" fill="white"/>
</svg>
