<svg width="22" height="22" viewBox="0 0 22 22" fill="none" xmlns="http://www.w3.org/2000/svg">
<path d="M17.4166 10.5417H17.875C18.7321 10.5417 19.1601 10.5417 19.4791 10.7259C19.6882 10.8466 19.8617 11.0202 19.9824 11.2292C20.1666 11.5482 20.1666 11.9763 20.1666 12.8333C20.1666 13.6904 20.1666 14.1185 19.9824 14.4375C19.8617 14.6465 19.6882 14.8201 19.4791 14.9408C19.1601 15.125 18.7321 15.125 17.875 15.125H17.4166M4.58331 10.5417H4.12498C3.2679 10.5417 2.83981 10.5417 2.52081 10.7259C2.3118 10.8466 2.13824 11.0202 2.01756 11.2292C1.83331 11.5482 1.83331 11.9763 1.83331 12.8333C1.83331 13.6904 1.83331 14.1185 2.01756 14.4375C2.13824 14.6465 2.3118 14.8201 2.52081 14.9408C2.83981 15.125 3.2679 15.125 4.12498 15.125H4.58331M10.0833 7.33334H11.9166C14.509 7.33334 15.8061 7.33334 16.6109 8.13909C17.4166 8.94393 17.4166 10.241 17.4166 12.8333C17.4166 15.4257 17.4166 16.7228 16.6109 17.5276C15.8061 18.3333 14.509 18.3333 11.9166 18.3333H11C11 18.3333 10.5416 20.1667 7.33331 20.1667C7.33331 20.1667 8.24998 19.2418 8.24998 18.3178C6.8264 18.2747 5.97665 18.1161 5.38906 17.5276C4.58331 16.7228 4.58331 15.4257 4.58331 12.8333C4.58331 10.241 4.58331 8.94393 5.38906 8.13909C6.1939 7.33334 7.49098 7.33334 10.0833 7.33334Z" stroke="#1653FF" stroke-width="1.5" stroke-linejoin="round"/>
<path d="M12.375 3.20834C12.375 3.57302 12.2301 3.92275 11.9723 4.18062C11.7144 4.43848 11.3647 4.58334 11 4.58334C10.6353 4.58334 10.2856 4.43848 10.0277 4.18062C9.76987 3.92275 9.625 3.57302 9.625 3.20834C9.625 2.84367 9.76987 2.49393 10.0277 2.23607C10.2856 1.97821 10.6353 1.83334 11 1.83334C11.3647 1.83334 11.7144 1.97821 11.9723 2.23607C12.2301 2.49393 12.375 2.84367 12.375 3.20834Z" stroke="#1653FF" stroke-width="1.5"/>
<path d="M11 4.58334V7.33334M8.25 11V11.9167M13.75 11V11.9167" stroke="#1653FF" stroke-width="1.5" stroke-linecap="round" stroke-linejoin="round"/>
<path d="M9.16663 15.125C9.16663 15.125 9.77804 15.5833 11 15.5833C12.2219 15.5833 12.8333 15.125 12.8333 15.125" stroke="#1653FF" stroke-width="1.5" stroke-linecap="round"/>
</svg>
