<svg width="18" height="18" viewBox="0 0 18 18" fill="none" xmlns="http://www.w3.org/2000/svg">
<g clip-path="url(#clip0_6_32)">
<path d="M1.42767 11.4214C1.42767 9.40267 1.42767 8.39258 2.05514 7.76583C2.68189 7.13837 3.69197 7.13837 5.71071 7.13837H11.4214C13.4402 7.13837 14.4503 7.13837 15.077 7.76583C15.7045 8.39258 15.7045 9.40267 15.7045 11.4214C15.7045 13.4401 15.7045 14.4502 15.077 15.077C14.4503 15.7044 13.4402 15.7044 11.4214 15.7044H5.71071C3.69197 15.7044 2.68189 15.7044 2.05514 15.077C1.42767 14.4502 1.42767 13.4401 1.42767 11.4214Z" stroke="#1653FF" stroke-width="1.5"/>
<path d="M4.28302 7.13839V5.71071C4.28302 4.57478 4.73427 3.48537 5.53749 2.68215C6.34072 1.87892 7.43013 1.42767 8.56606 1.42767C9.70199 1.42767 10.7914 1.87892 11.5946 2.68215C12.3979 3.48537 12.8491 4.57478 12.8491 5.71071V7.13839" stroke="#1653FF" stroke-width="1.5" stroke-linecap="round"/>
</g>
<defs>
<clipPath id="clip0_6_32">
<rect width="17.1322" height="17.1322" fill="white"/>
</clipPath>
</defs>
</svg>
