<svg width="17" height="17" viewBox="0 0 17 17" fill="none" xmlns="http://www.w3.org/2000/svg">
<path d="M8.40414 1.99563C8.16063 1.91322 7.89677 1.91322 7.65327 1.99563L3.1186 3.5315C2.9709 3.57948 2.84045 3.66959 2.7433 3.79076C2.64616 3.91192 2.58656 4.05884 2.57184 4.21344C2.34631 7.04159 2.73781 9.13291 3.66736 10.713C4.5668 12.2421 6.00564 13.3537 8.0287 14.1822C10.0538 13.3537 11.4939 12.2421 12.3934 10.713C13.3236 9.13358 13.7151 7.04159 13.4896 4.21344C13.4749 4.05884 13.4153 3.91192 13.3181 3.79076C13.221 3.66959 13.0905 3.57948 12.9428 3.5315L8.40414 1.99563ZM7.33137 1.04533C7.78358 0.892021 8.27368 0.891786 8.72604 1.04466L13.2647 2.58053C13.5981 2.69156 13.8917 2.89773 14.1093 3.17362C14.327 3.44951 14.4591 3.78306 14.4894 4.13313C14.7256 7.08442 14.3288 9.40395 13.2587 11.2222C12.1853 13.0459 10.4741 14.2993 8.21274 15.1901C8.09448 15.2367 7.96293 15.2367 7.84467 15.1901C5.58536 14.2993 3.87482 13.0459 2.80206 11.2222C1.73263 9.40395 1.33578 7.08375 1.57135 4.13313C1.60168 3.78306 1.7338 3.44951 1.95142 3.17362C2.16904 2.89773 2.46265 2.69156 2.79603 2.58053L7.33137 1.04533Z" fill="#14AE5C"/>
<path opacity="0.5" d="M8.0307 13.3845C11.3982 12.0193 12.987 9.62479 12.6771 5.10819C12.6423 4.59489 12.2917 4.16056 11.8051 3.99125L8.57947 2.86829C8.40302 2.80686 8.21753 2.77542 8.0307 2.77527V13.3845Z" fill="#14AE5C"/>
</svg>
